<?xml version="1.0" encoding="utf-8" standalone="no"?>
<!DOCTYPE svg PUBLIC "-//W3C//DTD SVG 1.1//EN"
  "http://www.w3.org/Graphics/SVG/1.1/DTD/svg11.dtd">
<svg xmlns:xlink="http://www.w3.org/1999/xlink" width="344.641875pt" height="271.718125pt" viewBox="0 0 344.641875 271.718125" xmlns="http://www.w3.org/2000/svg" version="1.1">
 <metadata>
  <rdf:RDF xmlns:dc="http://purl.org/dc/elements/1.1/" xmlns:cc="http://creativecommons.org/ns#" xmlns:rdf="http://www.w3.org/1999/02/22-rdf-syntax-ns#">
   <cc:Work>
    <dc:type rdf:resource="http://purl.org/dc/dcmitype/StillImage"/>
    <dc:date>2025-05-06T13:54:01.861286</dc:date>
    <dc:format>image/svg+xml</dc:format>
    <dc:creator>
     <cc:Agent>
      <dc:title>Matplotlib v3.8.0, https://matplotlib.org/</dc:title>
     </cc:Agent>
    </dc:creator>
   </cc:Work>
  </rdf:RDF>
 </metadata>
 <defs>
  <style type="text/css">*{stroke-linejoin: round; stroke-linecap: butt}</style>
 </defs>
 <g id="figure_1">
  <g id="patch_1">
   <path d="M 0 271.718125 
L 344.641875 271.718125 
L 344.641875 0 
L 0 0 
z
" style="fill: #ffffff"/>
  </g>
  <g id="axes_1">
   <g id="patch_2">
    <path d="M 52.079375 228.96 
L 331.079375 228.96 
L 331.079375 7.2 
L 52.079375 7.2 
z
" style="fill: #ffffff"/>
   </g>
   <g id="PolyCollection_1">
    <path d="M -39.176875 228.96 
L -39.176875 228.96 
L -35.689375 228.96 
L -32.201875 228.96 
L -28.714375 228.96 
L -25.226875 228.96 
L -21.739375 228.96 
L -18.251875 228.96 
L -14.764375 228.96 
L -11.276875 228.96 
L -7.789375 228.96 
L -4.301875 228.96 
L -0.814375 228.96 
L 2.673125 228.96 
L 6.160625 228.96 
L 9.648125 228.96 
L 13.135625 228.96 
L 16.623125 228.96 
L 20.110625 228.96 
L 23.598125 228.96 
L 27.085625 228.96 
L 30.573125 228.96 
L 34.060625 228.96 
L 37.548125 228.96 
L 41.035625 228.96 
L 44.523125 228.96 
L 48.010625 228.96 
L 51.498125 228.96 
L 54.985625 228.96 
L 58.473125 228.96 
L 61.960625 228.96 
L 65.448125 228.96 
L 68.935625 228.957434 
L 72.423125 228.924056 
L 75.910625 228.759756 
L 79.398125 228.161534 
L 82.885625 226.872747 
L 86.373125 224.811173 
L 89.860625 221.625123 
L 93.348125 217.660998 
L 96.835625 212.865309 
L 100.323125 207.081181 
L 103.810625 200.578127 
L 107.298125 193.361196 
L 110.785625 186.347298 
L 114.273125 178.653372 
L 117.760625 172.355396 
L 121.248125 164.258214 
L 124.735625 157.660132 
L 128.223125 152.078943 
L 131.710625 146.025266 
L 135.198125 138.761947 
L 138.685625 134.705463 
L 142.173125 131.580879 
L 145.660625 128.402939 
L 149.148125 125.973789 
L 152.635625 124.263913 
L 156.123125 123.378222 
L 159.610625 121.902106 
L 163.098125 121.871038 
L 166.585625 124.201943 
L 170.073125 123.298259 
L 173.560625 124.577589 
L 177.048125 127.966169 
L 180.535625 132.173934 
L 184.023125 135.747764 
L 187.510625 138.97763 
L 190.998125 140.458925 
L 194.485625 145.62972 
L 197.973125 148.481752 
L 201.460625 151.634372 
L 204.948125 156.02983 
L 208.435625 160.61993 
L 211.923125 164.902307 
L 215.410625 168.494001 
L 218.898125 171.898231 
L 222.385625 175.513069 
L 225.873125 179.733817 
L 229.360625 182.390887 
L 232.848125 186.123534 
L 236.335625 190.03639 
L 239.823125 192.950461 
L 243.310625 195.920892 
L 246.798125 199.535626 
L 250.285625 202.17978 
L 253.773125 204.654669 
L 257.260625 207.181011 
L 260.748125 209.22466 
L 264.235625 210.759922 
L 267.723125 212.274754 
L 271.210625 213.946079 
L 274.698125 215.373432 
L 278.185625 216.857599 
L 281.673125 218.256855 
L 285.160625 219.278557 
L 288.648125 220.58264 
L 292.135625 221.571205 
L 295.623125 222.497991 
L 299.110625 223.288766 
L 302.598125 223.704581 
L 306.085625 224.685236 
L 309.573125 225.04215 
L 313.060625 225.748241 
L 316.548125 226.035744 
L 320.035625 226.49786 
L 323.523125 226.787969 
L 327.010625 227.011395 
L 330.498125 227.291266 
L 333.985625 227.365679 
L 337.473125 227.591582 
L 340.960625 227.879133 
L 344.448125 227.948448 
L 347.935625 228.12302 
L 351.423125 228.212882 
L 351.423125 228.96 
L 351.423125 228.96 
L 347.935625 228.96 
L 344.448125 228.96 
L 340.960625 228.96 
L 337.473125 228.96 
L 333.985625 228.96 
L 330.498125 228.96 
L 327.010625 228.96 
L 323.523125 228.96 
L 320.035625 228.96 
L 316.548125 228.96 
L 313.060625 228.96 
L 309.573125 228.96 
L 306.085625 228.96 
L 302.598125 228.96 
L 299.110625 228.96 
L 295.623125 228.96 
L 292.135625 228.96 
L 288.648125 228.96 
L 285.160625 228.96 
L 281.673125 228.96 
L 278.185625 228.96 
L 274.698125 228.96 
L 271.210625 228.96 
L 267.723125 228.96 
L 264.235625 228.96 
L 260.748125 228.96 
L 257.260625 228.96 
L 253.773125 228.96 
L 250.285625 228.96 
L 246.798125 228.96 
L 243.310625 228.96 
L 239.823125 228.96 
L 236.335625 228.96 
L 232.848125 228.96 
L 229.360625 228.96 
L 225.873125 228.96 
L 222.385625 228.96 
L 218.898125 228.96 
L 215.410625 228.96 
L 211.923125 228.96 
L 208.435625 228.96 
L 204.948125 228.96 
L 201.460625 228.96 
L 197.973125 228.96 
L 194.485625 228.96 
L 190.998125 228.96 
L 187.510625 228.96 
L 184.023125 228.96 
L 180.535625 228.96 
L 177.048125 228.96 
L 173.560625 228.96 
L 170.073125 228.96 
L 166.585625 228.96 
L 163.098125 228.96 
L 159.610625 228.96 
L 156.123125 228.96 
L 152.635625 228.96 
L 149.148125 228.96 
L 145.660625 228.96 
L 142.173125 228.96 
L 138.685625 228.96 
L 135.198125 228.96 
L 131.710625 228.96 
L 128.223125 228.96 
L 124.735625 228.96 
L 121.248125 228.96 
L 117.760625 228.96 
L 114.273125 228.96 
L 110.785625 228.96 
L 107.298125 228.96 
L 103.810625 228.96 
L 100.323125 228.96 
L 96.835625 228.96 
L 93.348125 228.96 
L 89.860625 228.96 
L 86.373125 228.96 
L 82.885625 228.96 
L 79.398125 228.96 
L 75.910625 228.96 
L 72.423125 228.96 
L 68.935625 228.96 
L 65.448125 228.96 
L 61.960625 228.96 
L 58.473125 228.96 
L 54.985625 228.96 
L 51.498125 228.96 
L 48.010625 228.96 
L 44.523125 228.96 
L 41.035625 228.96 
L 37.548125 228.96 
L 34.060625 228.96 
L 30.573125 228.96 
L 27.085625 228.96 
L 23.598125 228.96 
L 20.110625 228.96 
L 16.623125 228.96 
L 13.135625 228.96 
L 9.648125 228.96 
L 6.160625 228.96 
L 2.673125 228.96 
L -0.814375 228.96 
L -4.301875 228.96 
L -7.789375 228.96 
L -11.276875 228.96 
L -14.764375 228.96 
L -18.251875 228.96 
L -21.739375 228.96 
L -25.226875 228.96 
L -28.714375 228.96 
L -32.201875 228.96 
L -35.689375 228.96 
L -39.176875 228.96 
z
" clip-path="url(#p3d8b07a91b)" style="fill: #0000ff; fill-opacity: 0.1; stroke: #0000ff; stroke-opacity: 0.1"/>
   </g>
   <g id="PolyCollection_2">
    <path d="M -39.176875 228.96 
L -39.176875 228.96 
L -35.689375 228.96 
L -32.201875 228.96 
L -28.714375 228.96 
L -25.226875 228.96 
L -21.739375 228.96 
L -18.251875 228.96 
L -14.764375 228.96 
L -11.276875 228.96 
L -7.789375 228.96 
L -4.301875 228.96 
L -0.814375 228.96 
L 2.673125 228.96 
L 6.160625 228.96 
L 9.648125 228.96 
L 13.135625 228.96 
L 16.623125 228.96 
L 20.110625 228.96 
L 23.598125 228.96 
L 27.085625 228.96 
L 30.573125 228.96 
L 34.060625 228.96 
L 37.548125 228.96 
L 41.035625 228.96 
L 44.523125 228.96 
L 48.010625 228.96 
L 51.498125 228.96 
L 54.985625 228.96 
L 58.473125 228.96 
L 61.960625 228.957435 
L 65.448125 228.934348 
L 68.935625 228.567527 
L 72.423125 226.235777 
L 75.910625 218.950659 
L 79.398125 203.885344 
L 82.885625 180.198452 
L 86.373125 149.665088 
L 89.860625 115.289082 
L 93.348125 83.80147 
L 96.835625 57.585309 
L 100.323125 39.685467 
L 103.810625 24.817671 
L 107.298125 21.041723 
L 110.785625 17.029778 
L 114.273125 20.756988 
L 117.760625 28.008758 
L 121.248125 38.441354 
L 124.735625 52.318989 
L 128.223125 67.274002 
L 131.710625 80.243563 
L 135.198125 95.05749 
L 138.685625 109.176253 
L 142.173125 124.06457 
L 145.660625 136.526225 
L 149.148125 148.695449 
L 152.635625 160.328551 
L 156.123125 170.630322 
L 159.610625 179.434028 
L 163.098125 187.791391 
L 166.585625 194.996988 
L 170.073125 201.15599 
L 173.560625 206.948172 
L 177.048125 210.826727 
L 180.535625 214.004988 
L 184.023125 217.329464 
L 187.510625 220.038296 
L 190.998125 221.923705 
L 194.485625 223.491032 
L 197.973125 224.612016 
L 201.460625 225.586785 
L 204.948125 226.502555 
L 208.435625 227.187459 
L 211.923125 227.746669 
L 215.410625 228.026274 
L 218.898125 228.303313 
L 222.385625 228.439268 
L 225.873125 228.575223 
L 229.360625 228.700917 
L 232.848125 228.818915 
L 236.335625 228.834306 
L 239.823125 228.872784 
L 243.310625 228.931783 
L 246.798125 228.942044 
L 250.285625 228.947174 
L 253.773125 228.944609 
L 257.260625 228.96 
L 260.748125 228.947174 
L 264.235625 228.96 
L 267.723125 228.96 
L 271.210625 228.96 
L 274.698125 228.96 
L 278.185625 228.96 
L 281.673125 228.96 
L 285.160625 228.96 
L 288.648125 228.96 
L 292.135625 228.96 
L 295.623125 228.96 
L 299.110625 228.96 
L 302.598125 228.96 
L 306.085625 228.96 
L 309.573125 228.96 
L 313.060625 228.96 
L 316.548125 228.96 
L 320.035625 228.96 
L 323.523125 228.96 
L 327.010625 228.96 
L 330.498125 228.96 
L 333.985625 228.96 
L 337.473125 228.96 
L 340.960625 228.96 
L 344.448125 228.96 
L 347.935625 228.96 
L 351.423125 228.96 
L 351.423125 228.96 
L 351.423125 228.96 
L 347.935625 228.96 
L 344.448125 228.96 
L 340.960625 228.96 
L 337.473125 228.96 
L 333.985625 228.96 
L 330.498125 228.96 
L 327.010625 228.96 
L 323.523125 228.96 
L 320.035625 228.96 
L 316.548125 228.96 
L 313.060625 228.96 
L 309.573125 228.96 
L 306.085625 228.96 
L 302.598125 228.96 
L 299.110625 228.96 
L 295.623125 228.96 
L 292.135625 228.96 
L 288.648125 228.96 
L 285.160625 228.96 
L 281.673125 228.96 
L 278.185625 228.96 
L 274.698125 228.96 
L 271.210625 228.96 
L 267.723125 228.96 
L 264.235625 228.96 
L 260.748125 228.96 
L 257.260625 228.96 
L 253.773125 228.96 
L 250.285625 228.96 
L 246.798125 228.96 
L 243.310625 228.96 
L 239.823125 228.96 
L 236.335625 228.96 
L 232.848125 228.96 
L 229.360625 228.96 
L 225.873125 228.96 
L 222.385625 228.96 
L 218.898125 228.96 
L 215.410625 228.96 
L 211.923125 228.96 
L 208.435625 228.96 
L 204.948125 228.96 
L 201.460625 228.96 
L 197.973125 228.96 
L 194.485625 228.96 
L 190.998125 228.96 
L 187.510625 228.96 
L 184.023125 228.96 
L 180.535625 228.96 
L 177.048125 228.96 
L 173.560625 228.96 
L 170.073125 228.96 
L 166.585625 228.96 
L 163.098125 228.96 
L 159.610625 228.96 
L 156.123125 228.96 
L 152.635625 228.96 
L 149.148125 228.96 
L 145.660625 228.96 
L 142.173125 228.96 
L 138.685625 228.96 
L 135.198125 228.96 
L 131.710625 228.96 
L 128.223125 228.96 
L 124.735625 228.96 
L 121.248125 228.96 
L 117.760625 228.96 
L 114.273125 228.96 
L 110.785625 228.96 
L 107.298125 228.96 
L 103.810625 228.96 
L 100.323125 228.96 
L 96.835625 228.96 
L 93.348125 228.96 
L 89.860625 228.96 
L 86.373125 228.96 
L 82.885625 228.96 
L 79.398125 228.96 
L 75.910625 228.96 
L 72.423125 228.96 
L 68.935625 228.96 
L 65.448125 228.96 
L 61.960625 228.96 
L 58.473125 228.96 
L 54.985625 228.96 
L 51.498125 228.96 
L 48.010625 228.96 
L 44.523125 228.96 
L 41.035625 228.96 
L 37.548125 228.96 
L 34.060625 228.96 
L 30.573125 228.96 
L 27.085625 228.96 
L 23.598125 228.96 
L 20.110625 228.96 
L 16.623125 228.96 
L 13.135625 228.96 
L 9.648125 228.96 
L 6.160625 228.96 
L 2.673125 228.96 
L -0.814375 228.96 
L -4.301875 228.96 
L -7.789375 228.96 
L -11.276875 228.96 
L -14.764375 228.96 
L -18.251875 228.96 
L -21.739375 228.96 
L -25.226875 228.96 
L -28.714375 228.96 
L -32.201875 228.96 
L -35.689375 228.96 
L -39.176875 228.96 
z
" clip-path="url(#p3d8b07a91b)" style="fill: #008000; fill-opacity: 0.1; stroke: #008000; stroke-opacity: 0.1"/>
   </g>
   <g id="matplotlib.axis_1">
    <g id="xtick_1">
     <g id="line2d_1">
      <defs>
       <path id="m5b79262acf" d="M 0 0 
L 0 3.5 
" style="stroke: #000000; stroke-width: 0.8"/>
      </defs>
      <g>
       <use xlink:href="#m5b79262acf" x="52.079375" y="228.96" style="stroke: #000000; stroke-width: 0.8"/>
      </g>
     </g>
     <g id="text_1">
      <!-- 20 -->
      <g transform="translate(45.716875 243.558437) scale(0.1 -0.1)">
       <defs>
        <path id="DejaVuSans-32" d="M 1228 531 
L 3431 531 
L 3431 0 
L 469 0 
L 469 531 
Q 828 903 1448 1529 
Q 2069 2156 2228 2338 
Q 2531 2678 2651 2914 
Q 2772 3150 2772 3378 
Q 2772 3750 2511 3984 
Q 2250 4219 1831 4219 
Q 1534 4219 1204 4116 
Q 875 4013 500 3803 
L 500 4441 
Q 881 4594 1212 4672 
Q 1544 4750 1819 4750 
Q 2544 4750 2975 4387 
Q 3406 4025 3406 3419 
Q 3406 3131 3298 2873 
Q 3191 2616 2906 2266 
Q 2828 2175 2409 1742 
Q 1991 1309 1228 531 
z
" transform="scale(0.015625)"/>
        <path id="DejaVuSans-30" d="M 2034 4250 
Q 1547 4250 1301 3770 
Q 1056 3291 1056 2328 
Q 1056 1369 1301 889 
Q 1547 409 2034 409 
Q 2525 409 2770 889 
Q 3016 1369 3016 2328 
Q 3016 3291 2770 3770 
Q 2525 4250 2034 4250 
z
M 2034 4750 
Q 2819 4750 3233 4129 
Q 3647 3509 3647 2328 
Q 3647 1150 3233 529 
Q 2819 -91 2034 -91 
Q 1250 -91 836 529 
Q 422 1150 422 2328 
Q 422 3509 836 4129 
Q 1250 4750 2034 4750 
z
" transform="scale(0.015625)"/>
       </defs>
       <use xlink:href="#DejaVuSans-32"/>
       <use xlink:href="#DejaVuSans-30" x="63.623047"/>
      </g>
     </g>
    </g>
    <g id="xtick_2">
     <g id="line2d_2">
      <g>
       <use xlink:href="#m5b79262acf" x="98.579375" y="228.96" style="stroke: #000000; stroke-width: 0.8"/>
      </g>
     </g>
     <g id="text_2">
      <!-- 30 -->
      <g transform="translate(92.216875 243.558437) scale(0.1 -0.1)">
       <defs>
        <path id="DejaVuSans-33" d="M 2597 2516 
Q 3050 2419 3304 2112 
Q 3559 1806 3559 1356 
Q 3559 666 3084 287 
Q 2609 -91 1734 -91 
Q 1441 -91 1130 -33 
Q 819 25 488 141 
L 488 750 
Q 750 597 1062 519 
Q 1375 441 1716 441 
Q 2309 441 2620 675 
Q 2931 909 2931 1356 
Q 2931 1769 2642 2001 
Q 2353 2234 1838 2234 
L 1294 2234 
L 1294 2753 
L 1863 2753 
Q 2328 2753 2575 2939 
Q 2822 3125 2822 3475 
Q 2822 3834 2567 4026 
Q 2313 4219 1838 4219 
Q 1578 4219 1281 4162 
Q 984 4106 628 3988 
L 628 4550 
Q 988 4650 1302 4700 
Q 1616 4750 1894 4750 
Q 2613 4750 3031 4423 
Q 3450 4097 3450 3541 
Q 3450 3153 3228 2886 
Q 3006 2619 2597 2516 
z
" transform="scale(0.015625)"/>
       </defs>
       <use xlink:href="#DejaVuSans-33"/>
       <use xlink:href="#DejaVuSans-30" x="63.623047"/>
      </g>
     </g>
    </g>
    <g id="xtick_3">
     <g id="line2d_3">
      <g>
       <use xlink:href="#m5b79262acf" x="145.079375" y="228.96" style="stroke: #000000; stroke-width: 0.8"/>
      </g>
     </g>
     <g id="text_3">
      <!-- 40 -->
      <g transform="translate(138.716875 243.558437) scale(0.1 -0.1)">
       <defs>
        <path id="DejaVuSans-34" d="M 2419 4116 
L 825 1625 
L 2419 1625 
L 2419 4116 
z
M 2253 4666 
L 3047 4666 
L 3047 1625 
L 3713 1625 
L 3713 1100 
L 3047 1100 
L 3047 0 
L 2419 0 
L 2419 1100 
L 313 1100 
L 313 1709 
L 2253 4666 
z
" transform="scale(0.015625)"/>
       </defs>
       <use xlink:href="#DejaVuSans-34"/>
       <use xlink:href="#DejaVuSans-30" x="63.623047"/>
      </g>
     </g>
    </g>
    <g id="xtick_4">
     <g id="line2d_4">
      <g>
       <use xlink:href="#m5b79262acf" x="191.579375" y="228.96" style="stroke: #000000; stroke-width: 0.8"/>
      </g>
     </g>
     <g id="text_4">
      <!-- 50 -->
      <g transform="translate(185.216875 243.558437) scale(0.1 -0.1)">
       <defs>
        <path id="DejaVuSans-35" d="M 691 4666 
L 3169 4666 
L 3169 4134 
L 1269 4134 
L 1269 2991 
Q 1406 3038 1543 3061 
Q 1681 3084 1819 3084 
Q 2600 3084 3056 2656 
Q 3513 2228 3513 1497 
Q 3513 744 3044 326 
Q 2575 -91 1722 -91 
Q 1428 -91 1123 -41 
Q 819 9 494 109 
L 494 744 
Q 775 591 1075 516 
Q 1375 441 1709 441 
Q 2250 441 2565 725 
Q 2881 1009 2881 1497 
Q 2881 1984 2565 2268 
Q 2250 2553 1709 2553 
Q 1456 2553 1204 2497 
Q 953 2441 691 2322 
L 691 4666 
z
" transform="scale(0.015625)"/>
       </defs>
       <use xlink:href="#DejaVuSans-35"/>
       <use xlink:href="#DejaVuSans-30" x="63.623047"/>
      </g>
     </g>
    </g>
    <g id="xtick_5">
     <g id="line2d_5">
      <g>
       <use xlink:href="#m5b79262acf" x="238.079375" y="228.96" style="stroke: #000000; stroke-width: 0.8"/>
      </g>
     </g>
     <g id="text_5">
      <!-- 60 -->
      <g transform="translate(231.716875 243.558437) scale(0.1 -0.1)">
       <defs>
        <path id="DejaVuSans-36" d="M 2113 2584 
Q 1688 2584 1439 2293 
Q 1191 2003 1191 1497 
Q 1191 994 1439 701 
Q 1688 409 2113 409 
Q 2538 409 2786 701 
Q 3034 994 3034 1497 
Q 3034 2003 2786 2293 
Q 2538 2584 2113 2584 
z
M 3366 4563 
L 3366 3988 
Q 3128 4100 2886 4159 
Q 2644 4219 2406 4219 
Q 1781 4219 1451 3797 
Q 1122 3375 1075 2522 
Q 1259 2794 1537 2939 
Q 1816 3084 2150 3084 
Q 2853 3084 3261 2657 
Q 3669 2231 3669 1497 
Q 3669 778 3244 343 
Q 2819 -91 2113 -91 
Q 1303 -91 875 529 
Q 447 1150 447 2328 
Q 447 3434 972 4092 
Q 1497 4750 2381 4750 
Q 2619 4750 2861 4703 
Q 3103 4656 3366 4563 
z
" transform="scale(0.015625)"/>
       </defs>
       <use xlink:href="#DejaVuSans-36"/>
       <use xlink:href="#DejaVuSans-30" x="63.623047"/>
      </g>
     </g>
    </g>
    <g id="xtick_6">
     <g id="line2d_6">
      <g>
       <use xlink:href="#m5b79262acf" x="284.579375" y="228.96" style="stroke: #000000; stroke-width: 0.8"/>
      </g>
     </g>
     <g id="text_6">
      <!-- 70 -->
      <g transform="translate(278.216875 243.558437) scale(0.1 -0.1)">
       <defs>
        <path id="DejaVuSans-37" d="M 525 4666 
L 3525 4666 
L 3525 4397 
L 1831 0 
L 1172 0 
L 2766 4134 
L 525 4134 
L 525 4666 
z
" transform="scale(0.015625)"/>
       </defs>
       <use xlink:href="#DejaVuSans-37"/>
       <use xlink:href="#DejaVuSans-30" x="63.623047"/>
      </g>
     </g>
    </g>
    <g id="xtick_7">
     <g id="line2d_7">
      <g>
       <use xlink:href="#m5b79262acf" x="331.079375" y="228.96" style="stroke: #000000; stroke-width: 0.8"/>
      </g>
     </g>
     <g id="text_7">
      <!-- 80 -->
      <g transform="translate(324.716875 243.558437) scale(0.1 -0.1)">
       <defs>
        <path id="DejaVuSans-38" d="M 2034 2216 
Q 1584 2216 1326 1975 
Q 1069 1734 1069 1313 
Q 1069 891 1326 650 
Q 1584 409 2034 409 
Q 2484 409 2743 651 
Q 3003 894 3003 1313 
Q 3003 1734 2745 1975 
Q 2488 2216 2034 2216 
z
M 1403 2484 
Q 997 2584 770 2862 
Q 544 3141 544 3541 
Q 544 4100 942 4425 
Q 1341 4750 2034 4750 
Q 2731 4750 3128 4425 
Q 3525 4100 3525 3541 
Q 3525 3141 3298 2862 
Q 3072 2584 2669 2484 
Q 3125 2378 3379 2068 
Q 3634 1759 3634 1313 
Q 3634 634 3220 271 
Q 2806 -91 2034 -91 
Q 1263 -91 848 271 
Q 434 634 434 1313 
Q 434 1759 690 2068 
Q 947 2378 1403 2484 
z
M 1172 3481 
Q 1172 3119 1398 2916 
Q 1625 2713 2034 2713 
Q 2441 2713 2670 2916 
Q 2900 3119 2900 3481 
Q 2900 3844 2670 4047 
Q 2441 4250 2034 4250 
Q 1625 4250 1398 4047 
Q 1172 3844 1172 3481 
z
" transform="scale(0.015625)"/>
       </defs>
       <use xlink:href="#DejaVuSans-38"/>
       <use xlink:href="#DejaVuSans-30" x="63.623047"/>
      </g>
     </g>
    </g>
    <g id="text_8">
     <!-- $R_g$ ($\AA$) -->
     <g transform="translate(173.879375 260.798125) scale(0.12 -0.12)">
      <defs>
       <path id="DejaVuSans-Oblique-52" d="M 1613 4147 
L 1294 2491 
L 2106 2491 
Q 2584 2491 2879 2755 
Q 3175 3019 3175 3444 
Q 3175 3784 2976 3965 
Q 2778 4147 2406 4147 
L 1613 4147 
z
M 2772 2241 
Q 2972 2194 3105 2009 
Q 3238 1825 3413 1275 
L 3809 0 
L 3144 0 
L 2778 1197 
Q 2638 1659 2453 1815 
Q 2269 1972 1888 1972 
L 1191 1972 
L 806 0 
L 172 0 
L 1081 4666 
L 2503 4666 
Q 3150 4666 3495 4373 
Q 3841 4081 3841 3531 
Q 3841 3044 3547 2687 
Q 3253 2331 2772 2241 
z
" transform="scale(0.015625)"/>
       <path id="DejaVuSans-Oblique-67" d="M 3816 3500 
L 3219 434 
Q 3047 -456 2561 -893 
Q 2075 -1331 1253 -1331 
Q 950 -1331 690 -1286 
Q 431 -1241 206 -1147 
L 313 -588 
Q 525 -725 762 -790 
Q 1000 -856 1269 -856 
Q 1816 -856 2167 -557 
Q 2519 -259 2631 300 
L 2681 563 
Q 2441 288 2122 144 
Q 1803 0 1434 0 
Q 903 0 598 351 
Q 294 703 294 1319 
Q 294 1803 478 2267 
Q 663 2731 997 3091 
Q 1219 3328 1514 3456 
Q 1809 3584 2131 3584 
Q 2484 3584 2746 3420 
Q 3009 3256 3138 2956 
L 3238 3500 
L 3816 3500 
z
M 2950 2216 
Q 2950 2641 2750 2872 
Q 2550 3103 2181 3103 
Q 1953 3103 1747 3012 
Q 1541 2922 1394 2759 
Q 1156 2491 1023 2127 
Q 891 1763 891 1375 
Q 891 944 1092 712 
Q 1294 481 1672 481 
Q 2219 481 2584 976 
Q 2950 1472 2950 2216 
z
" transform="scale(0.015625)"/>
       <path id="DejaVuSans-20" transform="scale(0.015625)"/>
       <path id="DejaVuSans-28" d="M 1984 4856 
Q 1566 4138 1362 3434 
Q 1159 2731 1159 2009 
Q 1159 1288 1364 580 
Q 1569 -128 1984 -844 
L 1484 -844 
Q 1016 -109 783 600 
Q 550 1309 550 2009 
Q 550 2706 781 3412 
Q 1013 4119 1484 4856 
L 1984 4856 
z
" transform="scale(0.015625)"/>
       <path id="DejaVuSans-Oblique-c5" d="M 3188 5081 
Q 3188 5278 3048 5417 
Q 2909 5556 2713 5556 
Q 2513 5556 2377 5420 
Q 2241 5284 2241 5081 
Q 2241 4884 2377 4746 
Q 2513 4609 2713 4609 
Q 2909 4609 3048 4746 
Q 3188 4884 3188 5081 
z
M 2203 4397 
Q 2034 4513 1945 4689 
Q 1856 4866 1856 5081 
Q 1856 5438 2106 5689 
Q 2356 5941 2713 5941 
Q 3069 5941 3320 5689 
Q 3572 5438 3572 5081 
Q 3572 4834 3458 4643 
Q 3344 4453 3128 4341 
L 3938 0 
L 3278 0 
L 3084 1197 
L 984 1197 
L 325 0 
L -341 0 
L 2203 4397 
z
M 2584 4044 
L 1275 1722 
L 2988 1722 
L 2584 4044 
z
" transform="scale(0.015625)"/>
       <path id="DejaVuSans-29" d="M 513 4856 
L 1013 4856 
Q 1481 4119 1714 3412 
Q 1947 2706 1947 2009 
Q 1947 1309 1714 600 
Q 1481 -109 1013 -844 
L 513 -844 
Q 928 -128 1133 580 
Q 1338 1288 1338 2009 
Q 1338 2731 1133 3434 
Q 928 4138 513 4856 
z
" transform="scale(0.015625)"/>
      </defs>
      <use xlink:href="#DejaVuSans-Oblique-52" transform="translate(0 0.171875)"/>
      <use xlink:href="#DejaVuSans-Oblique-67" transform="translate(69.482422 -16.234375) scale(0.7)"/>
      <use xlink:href="#DejaVuSans-20" transform="translate(116.650391 0.171875)"/>
      <use xlink:href="#DejaVuSans-28" transform="translate(148.4375 0.171875)"/>
      <use xlink:href="#DejaVuSans-Oblique-c5" transform="translate(187.451172 0.171875)"/>
      <use xlink:href="#DejaVuSans-29" transform="translate(255.859375 0.171875)"/>
     </g>
    </g>
   </g>
   <g id="matplotlib.axis_2">
    <g id="ytick_1">
     <g id="line2d_8">
      <defs>
       <path id="ma6201b70c9" d="M 0 0 
L -3.5 0 
" style="stroke: #000000; stroke-width: 0.8"/>
      </defs>
      <g>
       <use xlink:href="#ma6201b70c9" x="52.079375" y="228.96" style="stroke: #000000; stroke-width: 0.8"/>
      </g>
     </g>
     <g id="text_9">
      <!-- 0.00 -->
      <g transform="translate(22.81375 232.759219) scale(0.1 -0.1)">
       <defs>
        <path id="DejaVuSans-2e" d="M 684 794 
L 1344 794 
L 1344 0 
L 684 0 
L 684 794 
z
" transform="scale(0.015625)"/>
       </defs>
       <use xlink:href="#DejaVuSans-30"/>
       <use xlink:href="#DejaVuSans-2e" x="63.623047"/>
       <use xlink:href="#DejaVuSans-30" x="95.410156"/>
       <use xlink:href="#DejaVuSans-30" x="159.033203"/>
      </g>
     </g>
    </g>
    <g id="ytick_2">
     <g id="line2d_9">
      <g>
       <use xlink:href="#ma6201b70c9" x="52.079375" y="160.726154" style="stroke: #000000; stroke-width: 0.8"/>
      </g>
     </g>
     <g id="text_10">
      <!-- 0.02 -->
      <g transform="translate(22.81375 164.525373) scale(0.1 -0.1)">
       <use xlink:href="#DejaVuSans-30"/>
       <use xlink:href="#DejaVuSans-2e" x="63.623047"/>
       <use xlink:href="#DejaVuSans-30" x="95.410156"/>
       <use xlink:href="#DejaVuSans-32" x="159.033203"/>
      </g>
     </g>
    </g>
    <g id="ytick_3">
     <g id="line2d_10">
      <g>
       <use xlink:href="#ma6201b70c9" x="52.079375" y="92.492308" style="stroke: #000000; stroke-width: 0.8"/>
      </g>
     </g>
     <g id="text_11">
      <!-- 0.04 -->
      <g transform="translate(22.81375 96.291526) scale(0.1 -0.1)">
       <use xlink:href="#DejaVuSans-30"/>
       <use xlink:href="#DejaVuSans-2e" x="63.623047"/>
       <use xlink:href="#DejaVuSans-30" x="95.410156"/>
       <use xlink:href="#DejaVuSans-34" x="159.033203"/>
      </g>
     </g>
    </g>
    <g id="ytick_4">
     <g id="line2d_11">
      <g>
       <use xlink:href="#ma6201b70c9" x="52.079375" y="24.258462" style="stroke: #000000; stroke-width: 0.8"/>
      </g>
     </g>
     <g id="text_12">
      <!-- 0.06 -->
      <g transform="translate(22.81375 28.05768) scale(0.1 -0.1)">
       <use xlink:href="#DejaVuSans-30"/>
       <use xlink:href="#DejaVuSans-2e" x="63.623047"/>
       <use xlink:href="#DejaVuSans-30" x="95.410156"/>
       <use xlink:href="#DejaVuSans-36" x="159.033203"/>
      </g>
     </g>
    </g>
    <g id="text_13">
     <!-- Probability -->
     <g transform="translate(16.318125 149.794687) rotate(-90) scale(0.12 -0.12)">
      <defs>
       <path id="DejaVuSans-50" d="M 1259 4147 
L 1259 2394 
L 2053 2394 
Q 2494 2394 2734 2622 
Q 2975 2850 2975 3272 
Q 2975 3691 2734 3919 
Q 2494 4147 2053 4147 
L 1259 4147 
z
M 628 4666 
L 2053 4666 
Q 2838 4666 3239 4311 
Q 3641 3956 3641 3272 
Q 3641 2581 3239 2228 
Q 2838 1875 2053 1875 
L 1259 1875 
L 1259 0 
L 628 0 
L 628 4666 
z
" transform="scale(0.015625)"/>
       <path id="DejaVuSans-72" d="M 2631 2963 
Q 2534 3019 2420 3045 
Q 2306 3072 2169 3072 
Q 1681 3072 1420 2755 
Q 1159 2438 1159 1844 
L 1159 0 
L 581 0 
L 581 3500 
L 1159 3500 
L 1159 2956 
Q 1341 3275 1631 3429 
Q 1922 3584 2338 3584 
Q 2397 3584 2469 3576 
Q 2541 3569 2628 3553 
L 2631 2963 
z
" transform="scale(0.015625)"/>
       <path id="DejaVuSans-6f" d="M 1959 3097 
Q 1497 3097 1228 2736 
Q 959 2375 959 1747 
Q 959 1119 1226 758 
Q 1494 397 1959 397 
Q 2419 397 2687 759 
Q 2956 1122 2956 1747 
Q 2956 2369 2687 2733 
Q 2419 3097 1959 3097 
z
M 1959 3584 
Q 2709 3584 3137 3096 
Q 3566 2609 3566 1747 
Q 3566 888 3137 398 
Q 2709 -91 1959 -91 
Q 1206 -91 779 398 
Q 353 888 353 1747 
Q 353 2609 779 3096 
Q 1206 3584 1959 3584 
z
" transform="scale(0.015625)"/>
       <path id="DejaVuSans-62" d="M 3116 1747 
Q 3116 2381 2855 2742 
Q 2594 3103 2138 3103 
Q 1681 3103 1420 2742 
Q 1159 2381 1159 1747 
Q 1159 1113 1420 752 
Q 1681 391 2138 391 
Q 2594 391 2855 752 
Q 3116 1113 3116 1747 
z
M 1159 2969 
Q 1341 3281 1617 3432 
Q 1894 3584 2278 3584 
Q 2916 3584 3314 3078 
Q 3713 2572 3713 1747 
Q 3713 922 3314 415 
Q 2916 -91 2278 -91 
Q 1894 -91 1617 61 
Q 1341 213 1159 525 
L 1159 0 
L 581 0 
L 581 4863 
L 1159 4863 
L 1159 2969 
z
" transform="scale(0.015625)"/>
       <path id="DejaVuSans-61" d="M 2194 1759 
Q 1497 1759 1228 1600 
Q 959 1441 959 1056 
Q 959 750 1161 570 
Q 1363 391 1709 391 
Q 2188 391 2477 730 
Q 2766 1069 2766 1631 
L 2766 1759 
L 2194 1759 
z
M 3341 1997 
L 3341 0 
L 2766 0 
L 2766 531 
Q 2569 213 2275 61 
Q 1981 -91 1556 -91 
Q 1019 -91 701 211 
Q 384 513 384 1019 
Q 384 1609 779 1909 
Q 1175 2209 1959 2209 
L 2766 2209 
L 2766 2266 
Q 2766 2663 2505 2880 
Q 2244 3097 1772 3097 
Q 1472 3097 1187 3025 
Q 903 2953 641 2809 
L 641 3341 
Q 956 3463 1253 3523 
Q 1550 3584 1831 3584 
Q 2591 3584 2966 3190 
Q 3341 2797 3341 1997 
z
" transform="scale(0.015625)"/>
       <path id="DejaVuSans-69" d="M 603 3500 
L 1178 3500 
L 1178 0 
L 603 0 
L 603 3500 
z
M 603 4863 
L 1178 4863 
L 1178 4134 
L 603 4134 
L 603 4863 
z
" transform="scale(0.015625)"/>
       <path id="DejaVuSans-6c" d="M 603 4863 
L 1178 4863 
L 1178 0 
L 603 0 
L 603 4863 
z
" transform="scale(0.015625)"/>
       <path id="DejaVuSans-74" d="M 1172 4494 
L 1172 3500 
L 2356 3500 
L 2356 3053 
L 1172 3053 
L 1172 1153 
Q 1172 725 1289 603 
Q 1406 481 1766 481 
L 2356 481 
L 2356 0 
L 1766 0 
Q 1100 0 847 248 
Q 594 497 594 1153 
L 594 3053 
L 172 3053 
L 172 3500 
L 594 3500 
L 594 4494 
L 1172 4494 
z
" transform="scale(0.015625)"/>
       <path id="DejaVuSans-79" d="M 2059 -325 
Q 1816 -950 1584 -1140 
Q 1353 -1331 966 -1331 
L 506 -1331 
L 506 -850 
L 844 -850 
Q 1081 -850 1212 -737 
Q 1344 -625 1503 -206 
L 1606 56 
L 191 3500 
L 800 3500 
L 1894 763 
L 2988 3500 
L 3597 3500 
L 2059 -325 
z
" transform="scale(0.015625)"/>
      </defs>
      <use xlink:href="#DejaVuSans-50"/>
      <use xlink:href="#DejaVuSans-72" x="58.552734"/>
      <use xlink:href="#DejaVuSans-6f" x="97.416016"/>
      <use xlink:href="#DejaVuSans-62" x="158.597656"/>
      <use xlink:href="#DejaVuSans-61" x="222.074219"/>
      <use xlink:href="#DejaVuSans-62" x="283.353516"/>
      <use xlink:href="#DejaVuSans-69" x="346.830078"/>
      <use xlink:href="#DejaVuSans-6c" x="374.613281"/>
      <use xlink:href="#DejaVuSans-69" x="402.396484"/>
      <use xlink:href="#DejaVuSans-74" x="430.179688"/>
      <use xlink:href="#DejaVuSans-79" x="469.388672"/>
     </g>
    </g>
   </g>
   <g id="line2d_12">
    <path d="M -1 228.96 
L -0.814375 228.96 
L 2.673125 228.96 
L 6.160625 228.96 
L 9.648125 228.96 
L 13.135625 228.96 
L 16.623125 228.96 
L 20.110625 228.96 
L 23.598125 228.96 
L 27.085625 228.96 
L 30.573125 228.96 
L 34.060625 228.96 
L 37.548125 228.96 
L 41.035625 228.96 
L 44.523125 228.96 
L 48.010625 228.96 
L 51.498125 228.96 
L 54.985625 228.96 
L 58.473125 228.96 
L 61.960625 228.96 
L 65.448125 228.96 
L 68.935625 228.957434 
L 72.423125 228.924056 
L 75.910625 228.759756 
L 79.398125 228.161534 
L 82.885625 226.872747 
L 86.373125 224.811173 
L 89.860625 221.625123 
L 93.348125 217.660998 
L 96.835625 212.865309 
L 100.323125 207.081181 
L 103.810625 200.578127 
L 107.298125 193.361196 
L 110.785625 186.347298 
L 114.273125 178.653372 
L 117.760625 172.355396 
L 121.248125 164.258214 
L 124.735625 157.660132 
L 128.223125 152.078943 
L 131.710625 146.025266 
L 135.198125 138.761947 
L 138.685625 134.705463 
L 142.173125 131.580879 
L 145.660625 128.402939 
L 149.148125 125.973789 
L 152.635625 124.263913 
L 156.123125 123.378222 
L 159.610625 121.902106 
L 163.098125 121.871038 
L 166.585625 124.201943 
L 170.073125 123.298259 
L 173.560625 124.577589 
L 177.048125 127.966169 
L 180.535625 132.173934 
L 184.023125 135.747764 
L 187.510625 138.97763 
L 190.998125 140.458925 
L 194.485625 145.62972 
L 197.973125 148.481752 
L 201.460625 151.634372 
L 204.948125 156.02983 
L 208.435625 160.61993 
L 211.923125 164.902307 
L 215.410625 168.494001 
L 218.898125 171.898231 
L 222.385625 175.513069 
L 225.873125 179.733817 
L 229.360625 182.390887 
L 232.848125 186.123534 
L 236.335625 190.03639 
L 239.823125 192.950461 
L 243.310625 195.920892 
L 246.798125 199.535626 
L 250.285625 202.17978 
L 253.773125 204.654669 
L 257.260625 207.181011 
L 260.748125 209.22466 
L 264.235625 210.759922 
L 267.723125 212.274754 
L 271.210625 213.946079 
L 274.698125 215.373432 
L 278.185625 216.857599 
L 281.673125 218.256855 
L 285.160625 219.278557 
L 288.648125 220.58264 
L 292.135625 221.571205 
L 295.623125 222.497991 
L 299.110625 223.288766 
L 302.598125 223.704581 
L 306.085625 224.685236 
L 309.573125 225.04215 
L 313.060625 225.748241 
L 316.548125 226.035744 
L 320.035625 226.49786 
L 323.523125 226.787969 
L 327.010625 227.011395 
L 330.498125 227.291266 
L 333.985625 227.365679 
L 337.473125 227.591582 
L 340.960625 227.879133 
L 344.448125 227.948448 
L 345.641875 228.008203 
" clip-path="url(#p3d8b07a91b)" style="fill: none; stroke: #0000ff; stroke-width: 1.5; stroke-linecap: square"/>
   </g>
   <g id="line2d_13">
    <path d="M 177.57099 228.96 
L 177.57099 -1 
" clip-path="url(#p3d8b07a91b)" style="fill: none; stroke-dasharray: 5.55,2.4; stroke-dashoffset: 0; stroke: #0000ff; stroke-width: 1.5"/>
   </g>
   <g id="line2d_14">
    <path d="M -1 228.96 
L -0.814375 228.96 
L 2.673125 228.96 
L 6.160625 228.96 
L 9.648125 228.96 
L 13.135625 228.96 
L 16.623125 228.96 
L 20.110625 228.96 
L 23.598125 228.96 
L 27.085625 228.96 
L 30.573125 228.96 
L 34.060625 228.96 
L 37.548125 228.96 
L 41.035625 228.96 
L 44.523125 228.96 
L 48.010625 228.96 
L 51.498125 228.96 
L 54.985625 228.96 
L 58.473125 228.96 
L 61.960625 228.957435 
L 65.448125 228.934348 
L 68.935625 228.567527 
L 72.423125 226.235777 
L 75.910625 218.950659 
L 79.398125 203.885344 
L 82.885625 180.198452 
L 86.373125 149.665088 
L 89.860625 115.289082 
L 93.348125 83.80147 
L 96.835625 57.585309 
L 100.323125 39.685467 
L 103.810625 24.817671 
L 107.298125 21.041723 
L 110.785625 17.029778 
L 114.273125 20.756988 
L 117.760625 28.008758 
L 121.248125 38.441354 
L 124.735625 52.318989 
L 128.223125 67.274002 
L 131.710625 80.243563 
L 135.198125 95.05749 
L 138.685625 109.176253 
L 142.173125 124.06457 
L 145.660625 136.526225 
L 149.148125 148.695449 
L 152.635625 160.328551 
L 156.123125 170.630322 
L 159.610625 179.434028 
L 163.098125 187.791391 
L 166.585625 194.996988 
L 170.073125 201.15599 
L 173.560625 206.948172 
L 177.048125 210.826727 
L 180.535625 214.004988 
L 184.023125 217.329464 
L 187.510625 220.038296 
L 190.998125 221.923705 
L 194.485625 223.491032 
L 197.973125 224.612016 
L 201.460625 225.586785 
L 204.948125 226.502555 
L 208.435625 227.187459 
L 211.923125 227.746669 
L 215.410625 228.026274 
L 218.898125 228.303313 
L 222.385625 228.439268 
L 225.873125 228.575223 
L 229.360625 228.700917 
L 232.848125 228.818915 
L 236.335625 228.834306 
L 239.823125 228.872784 
L 243.310625 228.931783 
L 246.798125 228.942044 
L 250.285625 228.947174 
L 253.773125 228.944609 
L 257.260625 228.96 
L 260.748125 228.947174 
L 264.235625 228.96 
L 267.723125 228.96 
L 271.210625 228.96 
L 274.698125 228.96 
L 278.185625 228.96 
L 281.673125 228.96 
L 285.160625 228.96 
L 288.648125 228.96 
L 292.135625 228.96 
L 295.623125 228.96 
L 299.110625 228.96 
L 302.598125 228.96 
L 306.085625 228.96 
L 309.573125 228.96 
L 313.060625 228.96 
L 316.548125 228.96 
L 320.035625 228.96 
L 323.523125 228.96 
L 327.010625 228.96 
L 330.498125 228.96 
L 333.985625 228.96 
L 337.473125 228.96 
L 340.960625 228.96 
L 344.448125 228.96 
L 345.641875 228.96 
" clip-path="url(#p3d8b07a91b)" style="fill: none; stroke: #008000; stroke-width: 1.5; stroke-linecap: square"/>
   </g>
   <g id="line2d_15">
    <path d="M 120.78791 228.96 
L 120.78791 -1 
" clip-path="url(#p3d8b07a91b)" style="fill: none; stroke-dasharray: 5.55,2.4; stroke-dashoffset: 0; stroke: #008000; stroke-width: 1.5"/>
   </g>
   <g id="line2d_16">
    <path d="M 122.294375 228.96 
L 122.294375 -1 
" clip-path="url(#p3d8b07a91b)" style="fill: none; stroke-dasharray: 5.55,2.4; stroke-dashoffset: 0; stroke: #ff00ff; stroke-width: 1.5"/>
   </g>
   <g id="line2d_17">
    <path d="M 122.294375 228.96 
L 122.294375 272.718125 
" clip-path="url(#p3d8b07a91b)" style="fill: none; stroke: #ff00ff; stroke-width: 1.5; stroke-linecap: square"/>
   </g>
   <g id="line2d_18">
    <path d="M 122.294375 228.96 
L 122.294375 -1 
" clip-path="url(#p3d8b07a91b)" style="fill: none; stroke-dasharray: 5.55,2.4; stroke-dashoffset: 0; stroke: #000000; stroke-width: 1.5"/>
   </g>
   <g id="patch_3">
    <path d="M 52.079375 228.96 
L 52.079375 7.2 
" style="fill: none; stroke: #000000; stroke-width: 0.8; stroke-linejoin: miter; stroke-linecap: square"/>
   </g>
   <g id="patch_4">
    <path d="M 331.079375 228.96 
L 331.079375 7.2 
" style="fill: none; stroke: #000000; stroke-width: 0.8; stroke-linejoin: miter; stroke-linecap: square"/>
   </g>
   <g id="patch_5">
    <path d="M 52.079375 228.96 
L 331.079375 228.96 
" style="fill: none; stroke: #000000; stroke-width: 0.8; stroke-linejoin: miter; stroke-linecap: square"/>
   </g>
   <g id="patch_6">
    <path d="M 52.079375 7.2 
L 331.079375 7.2 
" style="fill: none; stroke: #000000; stroke-width: 0.8; stroke-linejoin: miter; stroke-linecap: square"/>
   </g>
   <g id="PolyCollection_3">
    <path d="M -39.176875 228.96 
L -39.176875 228.96 
L -35.689375 228.96 
L -32.201875 228.96 
L -28.714375 228.96 
L -25.226875 228.96 
L -21.739375 228.96 
L -18.251875 228.96 
L -14.764375 228.96 
L -11.276875 228.96 
L -7.789375 228.96 
L -4.301875 228.96 
L -0.814375 228.96 
L 2.673125 228.96 
L 6.160625 228.96 
L 9.648125 228.96 
L 13.135625 228.96 
L 16.623125 228.96 
L 20.110625 228.96 
L 23.598125 228.96 
L 27.085625 228.96 
L 30.573125 228.96 
L 34.060625 228.96 
L 37.548125 228.96 
L 41.035625 228.96 
L 44.523125 228.96 
L 48.010625 228.96 
L 51.498125 228.96 
L 54.985625 228.96 
L 58.473125 228.96 
L 61.960625 228.96 
L 65.448125 228.96 
L 68.935625 228.965131 
L 72.423125 228.974373 
L 75.910625 228.830302 
L 79.398125 228.364941 
L 82.885625 227.182583 
L 86.373125 225.409618 
L 89.860625 222.445359 
L 93.348125 219.1402 
L 96.835625 214.715698 
L 100.323125 209.15796 
L 103.810625 202.877887 
L 107.298125 195.58162 
L 110.785625 188.925777 
L 114.273125 181.489944 
L 117.760625 174.191748 
L 121.248125 167.098637 
L 124.735625 160.754943 
L 128.223125 154.945766 
L 131.710625 149.635239 
L 135.198125 141.924327 
L 138.685625 137.741537 
L 142.173125 134.207985 
L 145.660625 131.283794 
L 149.148125 128.145073 
L 152.635625 126.703187 
L 156.123125 126.006081 
L 159.610625 123.814989 
L 163.098125 125.181558 
L 166.585625 127.089876 
L 170.073125 126.271526 
L 173.560625 126.876129 
L 177.048125 131.073358 
L 180.535625 135.1106 
L 184.023125 138.593935 
L 187.510625 141.439651 
L 190.998125 143.065954 
L 194.485625 149.042473 
L 197.973125 151.836715 
L 201.460625 153.616043 
L 204.948125 158.145096 
L 208.435625 162.514432 
L 211.923125 166.740783 
L 215.410625 170.963765 
L 218.898125 173.638497 
L 222.385625 177.21443 
L 225.873125 181.160597 
L 229.360625 183.903161 
L 232.848125 188.082097 
L 236.335625 191.20684 
L 239.823125 194.110332 
L 243.310625 197.309104 
L 246.798125 200.979071 
L 250.285625 203.81012 
L 253.773125 206.908503 
L 257.260625 209.630069 
L 260.748125 211.568406 
L 264.235625 212.425751 
L 267.723125 213.395518 
L 271.210625 215.17327 
L 274.698125 216.801634 
L 278.185625 217.965542 
L 281.673125 219.324515 
L 285.160625 220.364199 
L 288.648125 221.67435 
L 292.135625 222.282192 
L 295.623125 223.260189 
L 299.110625 223.955989 
L 302.598125 224.530555 
L 306.085625 225.309301 
L 309.573125 225.612296 
L 313.060625 226.312506 
L 316.548125 226.59444 
L 320.035625 227.160107 
L 323.523125 227.267178 
L 327.010625 227.368503 
L 330.498125 227.582889 
L 333.985625 227.667835 
L 337.473125 227.833432 
L 340.960625 228.121782 
L 344.448125 228.317863 
L 347.935625 228.468472 
L 351.423125 228.483269 
L 351.423125 227.942495 
L 351.423125 227.942495 
L 347.935625 227.777568 
L 344.448125 227.579032 
L 340.960625 227.636484 
L 337.473125 227.349732 
L 333.985625 227.063522 
L 330.498125 226.999643 
L 327.010625 226.654287 
L 323.523125 226.308761 
L 320.035625 225.835612 
L 316.548125 225.477047 
L 313.060625 225.183976 
L 309.573125 224.472005 
L 306.085625 224.061172 
L 302.598125 222.878607 
L 299.110625 222.621543 
L 295.623125 221.735792 
L 292.135625 220.860217 
L 288.648125 219.490929 
L 285.160625 218.192915 
L 281.673125 217.189196 
L 278.185625 215.749655 
L 274.698125 213.945231 
L 271.210625 212.718889 
L 267.723125 211.153991 
L 264.235625 209.094094 
L 260.748125 206.880914 
L 257.260625 204.731952 
L 253.773125 202.400835 
L 250.285625 200.54944 
L 246.798125 198.092182 
L 243.310625 194.532681 
L 239.823125 191.790591 
L 236.335625 188.86594 
L 232.848125 184.164972 
L 229.360625 180.878613 
L 225.873125 178.307038 
L 222.385625 173.811709 
L 218.898125 170.157964 
L 215.410625 166.024238 
L 211.923125 163.06383 
L 208.435625 158.725429 
L 204.948125 153.914563 
L 201.460625 149.652701 
L 197.973125 145.126789 
L 194.485625 142.216967 
L 190.998125 137.851896 
L 187.510625 136.515609 
L 184.023125 132.901594 
L 180.535625 129.237269 
L 177.048125 124.85898 
L 173.560625 122.27905 
L 170.073125 120.324992 
L 166.585625 121.31401 
L 163.098125 118.560519 
L 159.610625 119.989223 
L 156.123125 120.750363 
L 152.635625 121.82464 
L 149.148125 123.802506 
L 145.660625 125.522085 
L 142.173125 128.953773 
L 138.685625 131.669389 
L 135.198125 135.599568 
L 131.710625 142.415292 
L 128.223125 149.21212 
L 124.735625 154.565321 
L 121.248125 161.417792 
L 117.760625 170.519044 
L 114.273125 175.816799 
L 110.785625 183.768818 
L 107.298125 191.140773 
L 103.810625 198.278368 
L 100.323125 205.004402 
L 96.835625 211.014921 
L 93.348125 216.181796 
L 89.860625 220.804886 
L 86.373125 224.212728 
L 82.885625 226.562911 
L 79.398125 227.958126 
L 75.910625 228.68921 
L 72.423125 228.873739 
L 68.935625 228.949738 
L 65.448125 228.96 
L 61.960625 228.96 
L 58.473125 228.96 
L 54.985625 228.96 
L 51.498125 228.96 
L 48.010625 228.96 
L 44.523125 228.96 
L 41.035625 228.96 
L 37.548125 228.96 
L 34.060625 228.96 
L 30.573125 228.96 
L 27.085625 228.96 
L 23.598125 228.96 
L 20.110625 228.96 
L 16.623125 228.96 
L 13.135625 228.96 
L 9.648125 228.96 
L 6.160625 228.96 
L 2.673125 228.96 
L -0.814375 228.96 
L -4.301875 228.96 
L -7.789375 228.96 
L -11.276875 228.96 
L -14.764375 228.96 
L -18.251875 228.96 
L -21.739375 228.96 
L -25.226875 228.96 
L -28.714375 228.96 
L -32.201875 228.96 
L -35.689375 228.96 
L -39.176875 228.96 
z
" clip-path="url(#p3d8b07a91b)" style="fill: #0000ff; fill-opacity: 0.2"/>
   </g>
   <g id="PolyCollection_4">
    <path d="M 178.630548 228.96 
L 176.511432 228.96 
L 176.511432 -112.209231 
L 178.630548 -112.209231 
L 178.630548 -112.209231 
L 178.630548 228.96 
z
" clip-path="url(#p3d8b07a91b)" style="fill: #0000ff; fill-opacity: 0.3; stroke: #0000ff; stroke-opacity: 0.3"/>
   </g>
   <g id="PolyCollection_5">
    <path d="M -39.176875 228.96 
L -39.176875 228.96 
L -35.689375 228.96 
L -32.201875 228.96 
L -28.714375 228.96 
L -25.226875 228.96 
L -21.739375 228.96 
L -18.251875 228.96 
L -14.764375 228.96 
L -11.276875 228.96 
L -7.789375 228.96 
L -4.301875 228.96 
L -0.814375 228.96 
L 2.673125 228.96 
L 6.160625 228.96 
L 9.648125 228.96 
L 13.135625 228.96 
L 16.623125 228.96 
L 20.110625 228.96 
L 23.598125 228.96 
L 27.085625 228.96 
L 30.573125 228.96 
L 34.060625 228.96 
L 37.548125 228.96 
L 41.035625 228.96 
L 44.523125 228.96 
L 48.010625 228.96 
L 51.498125 228.96 
L 54.985625 228.96 
L 58.473125 228.96 
L 61.960625 228.96513 
L 65.448125 228.9647 
L 68.935625 228.708051 
L 72.423125 226.69933 
L 75.910625 220.06004 
L 79.398125 206.224173 
L 82.885625 183.116327 
L 86.373125 153.792781 
L 89.860625 119.914071 
L 93.348125 89.319306 
L 96.835625 61.828352 
L 100.323125 45.414963 
L 103.810625 31.023926 
L 107.298125 26.920539 
L 110.785625 20.715826 
L 114.273125 25.209382 
L 117.760625 31.789297 
L 121.248125 42.472502 
L 124.735625 56.463969 
L 128.223125 70.781581 
L 131.710625 84.111586 
L 135.198125 98.950436 
L 138.685625 113.17358 
L 142.173125 126.050286 
L 145.660625 138.491135 
L 149.148125 152.184229 
L 152.635625 163.517398 
L 156.123125 173.506015 
L 159.610625 182.459791 
L 163.098125 189.666097 
L 166.585625 196.498617 
L 170.073125 202.908986 
L 173.560625 208.499479 
L 177.048125 212.051824 
L 180.535625 215.231993 
L 184.023125 218.735886 
L 187.510625 220.600276 
L 190.998125 222.661841 
L 194.485625 224.129736 
L 197.973125 225.346685 
L 201.460625 226.002036 
L 204.948125 226.918843 
L 208.435625 227.638734 
L 211.923125 227.975546 
L 215.410625 228.367009 
L 218.898125 228.499076 
L 222.385625 228.602334 
L 225.873125 228.723472 
L 229.360625 228.780768 
L 232.848125 228.917098 
L 236.335625 228.987982 
L 239.823125 228.982937 
L 243.310625 228.963095 
L 246.798125 228.988003 
L 250.285625 228.967855 
L 253.773125 228.977459 
L 257.260625 228.96 
L 260.748125 228.985652 
L 264.235625 228.96 
L 267.723125 228.96 
L 271.210625 228.96 
L 274.698125 228.96 
L 278.185625 228.96 
L 281.673125 228.96 
L 285.160625 228.96 
L 288.648125 228.96 
L 292.135625 228.96 
L 295.623125 228.96 
L 299.110625 228.96 
L 302.598125 228.96 
L 306.085625 228.96 
L 309.573125 228.96 
L 313.060625 228.96 
L 316.548125 228.96 
L 320.035625 228.96 
L 323.523125 228.96 
L 327.010625 228.96 
L 330.498125 228.96 
L 333.985625 228.96 
L 337.473125 228.96 
L 340.960625 228.96 
L 344.448125 228.96 
L 347.935625 228.96 
L 351.423125 228.96 
L 351.423125 228.96 
L 351.423125 228.96 
L 347.935625 228.96 
L 344.448125 228.96 
L 340.960625 228.96 
L 337.473125 228.96 
L 333.985625 228.96 
L 330.498125 228.96 
L 327.010625 228.96 
L 323.523125 228.96 
L 320.035625 228.96 
L 316.548125 228.96 
L 313.060625 228.96 
L 309.573125 228.96 
L 306.085625 228.96 
L 302.598125 228.96 
L 299.110625 228.96 
L 295.623125 228.96 
L 292.135625 228.96 
L 288.648125 228.96 
L 285.160625 228.96 
L 281.673125 228.96 
L 278.185625 228.96 
L 274.698125 228.96 
L 271.210625 228.96 
L 267.723125 228.96 
L 264.235625 228.96 
L 260.748125 228.908696 
L 257.260625 228.96 
L 253.773125 228.911759 
L 250.285625 228.926493 
L 246.798125 228.896085 
L 243.310625 228.900471 
L 239.823125 228.76263 
L 236.335625 228.68063 
L 232.848125 228.720732 
L 229.360625 228.621066 
L 225.873125 228.426974 
L 222.385625 228.276202 
L 218.898125 228.107551 
L 215.410625 227.685539 
L 211.923125 227.517792 
L 208.435625 226.736184 
L 204.948125 226.086268 
L 201.460625 225.171535 
L 197.973125 223.877348 
L 194.485625 222.852327 
L 190.998125 221.18557 
L 187.510625 219.476317 
L 184.023125 215.923042 
L 180.535625 212.777983 
L 177.048125 209.60163 
L 173.560625 205.396864 
L 170.073125 199.402995 
L 166.585625 193.495359 
L 163.098125 185.916685 
L 159.610625 176.408264 
L 156.123125 167.754629 
L 152.635625 157.139703 
L 149.148125 145.20667 
L 145.660625 134.561316 
L 142.173125 122.078854 
L 138.685625 105.178925 
L 135.198125 91.164544 
L 131.710625 76.375539 
L 128.223125 63.766422 
L 124.735625 48.17401 
L 121.248125 34.410205 
L 117.760625 24.228219 
L 114.273125 16.304593 
L 110.785625 13.34373 
L 107.298125 15.162908 
L 103.810625 18.611417 
L 100.323125 33.955971 
L 96.835625 53.342265 
L 93.348125 78.283635 
L 89.860625 110.664092 
L 86.373125 145.537395 
L 82.885625 177.280577 
L 79.398125 201.546515 
L 75.910625 217.841278 
L 72.423125 225.772223 
L 68.935625 228.427003 
L 65.448125 228.903997 
L 61.960625 228.949739 
L 58.473125 228.96 
L 54.985625 228.96 
L 51.498125 228.96 
L 48.010625 228.96 
L 44.523125 228.96 
L 41.035625 228.96 
L 37.548125 228.96 
L 34.060625 228.96 
L 30.573125 228.96 
L 27.085625 228.96 
L 23.598125 228.96 
L 20.110625 228.96 
L 16.623125 228.96 
L 13.135625 228.96 
L 9.648125 228.96 
L 6.160625 228.96 
L 2.673125 228.96 
L -0.814375 228.96 
L -4.301875 228.96 
L -7.789375 228.96 
L -11.276875 228.96 
L -14.764375 228.96 
L -18.251875 228.96 
L -21.739375 228.96 
L -25.226875 228.96 
L -28.714375 228.96 
L -32.201875 228.96 
L -35.689375 228.96 
L -39.176875 228.96 
z
" clip-path="url(#p3d8b07a91b)" style="fill: #008000; fill-opacity: 0.2"/>
   </g>
   <g id="PolyCollection_6">
    <path d="M 121.279809 228.96 
L 120.296012 228.96 
L 120.296012 -112.209231 
L 121.279809 -112.209231 
L 121.279809 -112.209231 
L 121.279809 228.96 
z
" clip-path="url(#p3d8b07a91b)" style="fill: #008000; fill-opacity: 0.3; stroke: #008000; stroke-opacity: 0.3"/>
   </g>
   <g id="PolyCollection_7">
    <path d="M 123.224375 228.96 
L 121.364375 228.96 
L 121.364375 -112.209231 
L 123.224375 -112.209231 
L 123.224375 -112.209231 
L 123.224375 228.96 
z
" clip-path="url(#p3d8b07a91b)" style="fill: #ff00ff; fill-opacity: 0.3; stroke: #ff00ff; stroke-opacity: 0.3"/>
   </g>
  </g>
  <g id="legend_1">
   <g id="patch_7">
    <path d="M 190.48875 72.052813 
L 324.079375 72.052813 
Q 326.079375 72.052813 326.079375 70.052813 
L 326.079375 11.32 
Q 326.079375 9.32 324.079375 9.32 
L 190.48875 9.32 
Q 188.48875 9.32 188.48875 11.32 
L 188.48875 70.052813 
Q 188.48875 72.052813 190.48875 72.052813 
z
" style="fill: #ffffff; opacity: 0.8; stroke: #cccccc; stroke-linejoin: miter"/>
   </g>
   <g id="line2d_19">
    <path d="M 192.48875 17.418438 
L 202.48875 17.418438 
L 212.48875 17.418438 
" style="fill: none; stroke: #0000ff; stroke-width: 1.5; stroke-linecap: square"/>
   </g>
   <g id="text_14">
    <!-- Unbound Simulation -->
    <g transform="translate(220.48875 20.918438) scale(0.1 -0.1)">
     <defs>
      <path id="DejaVuSans-55" d="M 556 4666 
L 1191 4666 
L 1191 1831 
Q 1191 1081 1462 751 
Q 1734 422 2344 422 
Q 2950 422 3222 751 
Q 3494 1081 3494 1831 
L 3494 4666 
L 4128 4666 
L 4128 1753 
Q 4128 841 3676 375 
Q 3225 -91 2344 -91 
Q 1459 -91 1007 375 
Q 556 841 556 1753 
L 556 4666 
z
" transform="scale(0.015625)"/>
      <path id="DejaVuSans-6e" d="M 3513 2113 
L 3513 0 
L 2938 0 
L 2938 2094 
Q 2938 2591 2744 2837 
Q 2550 3084 2163 3084 
Q 1697 3084 1428 2787 
Q 1159 2491 1159 1978 
L 1159 0 
L 581 0 
L 581 3500 
L 1159 3500 
L 1159 2956 
Q 1366 3272 1645 3428 
Q 1925 3584 2291 3584 
Q 2894 3584 3203 3211 
Q 3513 2838 3513 2113 
z
" transform="scale(0.015625)"/>
      <path id="DejaVuSans-75" d="M 544 1381 
L 544 3500 
L 1119 3500 
L 1119 1403 
Q 1119 906 1312 657 
Q 1506 409 1894 409 
Q 2359 409 2629 706 
Q 2900 1003 2900 1516 
L 2900 3500 
L 3475 3500 
L 3475 0 
L 2900 0 
L 2900 538 
Q 2691 219 2414 64 
Q 2138 -91 1772 -91 
Q 1169 -91 856 284 
Q 544 659 544 1381 
z
M 1991 3584 
L 1991 3584 
z
" transform="scale(0.015625)"/>
      <path id="DejaVuSans-64" d="M 2906 2969 
L 2906 4863 
L 3481 4863 
L 3481 0 
L 2906 0 
L 2906 525 
Q 2725 213 2448 61 
Q 2172 -91 1784 -91 
Q 1150 -91 751 415 
Q 353 922 353 1747 
Q 353 2572 751 3078 
Q 1150 3584 1784 3584 
Q 2172 3584 2448 3432 
Q 2725 3281 2906 2969 
z
M 947 1747 
Q 947 1113 1208 752 
Q 1469 391 1925 391 
Q 2381 391 2643 752 
Q 2906 1113 2906 1747 
Q 2906 2381 2643 2742 
Q 2381 3103 1925 3103 
Q 1469 3103 1208 2742 
Q 947 2381 947 1747 
z
" transform="scale(0.015625)"/>
      <path id="DejaVuSans-53" d="M 3425 4513 
L 3425 3897 
Q 3066 4069 2747 4153 
Q 2428 4238 2131 4238 
Q 1616 4238 1336 4038 
Q 1056 3838 1056 3469 
Q 1056 3159 1242 3001 
Q 1428 2844 1947 2747 
L 2328 2669 
Q 3034 2534 3370 2195 
Q 3706 1856 3706 1288 
Q 3706 609 3251 259 
Q 2797 -91 1919 -91 
Q 1588 -91 1214 -16 
Q 841 59 441 206 
L 441 856 
Q 825 641 1194 531 
Q 1563 422 1919 422 
Q 2459 422 2753 634 
Q 3047 847 3047 1241 
Q 3047 1584 2836 1778 
Q 2625 1972 2144 2069 
L 1759 2144 
Q 1053 2284 737 2584 
Q 422 2884 422 3419 
Q 422 4038 858 4394 
Q 1294 4750 2059 4750 
Q 2388 4750 2728 4690 
Q 3069 4631 3425 4513 
z
" transform="scale(0.015625)"/>
      <path id="DejaVuSans-6d" d="M 3328 2828 
Q 3544 3216 3844 3400 
Q 4144 3584 4550 3584 
Q 5097 3584 5394 3201 
Q 5691 2819 5691 2113 
L 5691 0 
L 5113 0 
L 5113 2094 
Q 5113 2597 4934 2840 
Q 4756 3084 4391 3084 
Q 3944 3084 3684 2787 
Q 3425 2491 3425 1978 
L 3425 0 
L 2847 0 
L 2847 2094 
Q 2847 2600 2669 2842 
Q 2491 3084 2119 3084 
Q 1678 3084 1418 2786 
Q 1159 2488 1159 1978 
L 1159 0 
L 581 0 
L 581 3500 
L 1159 3500 
L 1159 2956 
Q 1356 3278 1631 3431 
Q 1906 3584 2284 3584 
Q 2666 3584 2933 3390 
Q 3200 3197 3328 2828 
z
" transform="scale(0.015625)"/>
     </defs>
     <use xlink:href="#DejaVuSans-55"/>
     <use xlink:href="#DejaVuSans-6e" x="73.193359"/>
     <use xlink:href="#DejaVuSans-62" x="136.572266"/>
     <use xlink:href="#DejaVuSans-6f" x="200.048828"/>
     <use xlink:href="#DejaVuSans-75" x="261.230469"/>
     <use xlink:href="#DejaVuSans-6e" x="324.609375"/>
     <use xlink:href="#DejaVuSans-64" x="387.988281"/>
     <use xlink:href="#DejaVuSans-20" x="451.464844"/>
     <use xlink:href="#DejaVuSans-53" x="483.251953"/>
     <use xlink:href="#DejaVuSans-69" x="546.728516"/>
     <use xlink:href="#DejaVuSans-6d" x="574.511719"/>
     <use xlink:href="#DejaVuSans-75" x="671.923828"/>
     <use xlink:href="#DejaVuSans-6c" x="735.302734"/>
     <use xlink:href="#DejaVuSans-61" x="763.085938"/>
     <use xlink:href="#DejaVuSans-74" x="824.365234"/>
     <use xlink:href="#DejaVuSans-69" x="863.574219"/>
     <use xlink:href="#DejaVuSans-6f" x="891.357422"/>
     <use xlink:href="#DejaVuSans-6e" x="952.539062"/>
    </g>
   </g>
   <g id="line2d_20">
    <path d="M 192.48875 32.096563 
L 202.48875 32.096563 
L 212.48875 32.096563 
" style="fill: none; stroke: #008000; stroke-width: 1.5; stroke-linecap: square"/>
   </g>
   <g id="text_15">
    <!-- Bound Simulation -->
    <g transform="translate(220.48875 35.596563) scale(0.1 -0.1)">
     <defs>
      <path id="DejaVuSans-42" d="M 1259 2228 
L 1259 519 
L 2272 519 
Q 2781 519 3026 730 
Q 3272 941 3272 1375 
Q 3272 1813 3026 2020 
Q 2781 2228 2272 2228 
L 1259 2228 
z
M 1259 4147 
L 1259 2741 
L 2194 2741 
Q 2656 2741 2882 2914 
Q 3109 3088 3109 3444 
Q 3109 3797 2882 3972 
Q 2656 4147 2194 4147 
L 1259 4147 
z
M 628 4666 
L 2241 4666 
Q 2963 4666 3353 4366 
Q 3744 4066 3744 3513 
Q 3744 3084 3544 2831 
Q 3344 2578 2956 2516 
Q 3422 2416 3680 2098 
Q 3938 1781 3938 1306 
Q 3938 681 3513 340 
Q 3088 0 2303 0 
L 628 0 
L 628 4666 
z
" transform="scale(0.015625)"/>
     </defs>
     <use xlink:href="#DejaVuSans-42"/>
     <use xlink:href="#DejaVuSans-6f" x="68.603516"/>
     <use xlink:href="#DejaVuSans-75" x="129.785156"/>
     <use xlink:href="#DejaVuSans-6e" x="193.164062"/>
     <use xlink:href="#DejaVuSans-64" x="256.542969"/>
     <use xlink:href="#DejaVuSans-20" x="320.019531"/>
     <use xlink:href="#DejaVuSans-53" x="351.806641"/>
     <use xlink:href="#DejaVuSans-69" x="415.283203"/>
     <use xlink:href="#DejaVuSans-6d" x="443.066406"/>
     <use xlink:href="#DejaVuSans-75" x="540.478516"/>
     <use xlink:href="#DejaVuSans-6c" x="603.857422"/>
     <use xlink:href="#DejaVuSans-61" x="631.640625"/>
     <use xlink:href="#DejaVuSans-74" x="692.919922"/>
     <use xlink:href="#DejaVuSans-69" x="732.128906"/>
     <use xlink:href="#DejaVuSans-6f" x="759.912109"/>
     <use xlink:href="#DejaVuSans-6e" x="821.09375"/>
    </g>
   </g>
   <g id="line2d_21">
    <path d="M 192.48875 46.774688 
L 202.48875 46.774688 
L 212.48875 46.774688 
" style="fill: none; stroke: #ff00ff; stroke-width: 1.5; stroke-linecap: square"/>
   </g>
   <g id="text_16">
    <!-- Experimental -->
    <g transform="translate(220.48875 50.274688) scale(0.1 -0.1)">
     <defs>
      <path id="DejaVuSans-45" d="M 628 4666 
L 3578 4666 
L 3578 4134 
L 1259 4134 
L 1259 2753 
L 3481 2753 
L 3481 2222 
L 1259 2222 
L 1259 531 
L 3634 531 
L 3634 0 
L 628 0 
L 628 4666 
z
" transform="scale(0.015625)"/>
      <path id="DejaVuSans-78" d="M 3513 3500 
L 2247 1797 
L 3578 0 
L 2900 0 
L 1881 1375 
L 863 0 
L 184 0 
L 1544 1831 
L 300 3500 
L 978 3500 
L 1906 2253 
L 2834 3500 
L 3513 3500 
z
" transform="scale(0.015625)"/>
      <path id="DejaVuSans-70" d="M 1159 525 
L 1159 -1331 
L 581 -1331 
L 581 3500 
L 1159 3500 
L 1159 2969 
Q 1341 3281 1617 3432 
Q 1894 3584 2278 3584 
Q 2916 3584 3314 3078 
Q 3713 2572 3713 1747 
Q 3713 922 3314 415 
Q 2916 -91 2278 -91 
Q 1894 -91 1617 61 
Q 1341 213 1159 525 
z
M 3116 1747 
Q 3116 2381 2855 2742 
Q 2594 3103 2138 3103 
Q 1681 3103 1420 2742 
Q 1159 2381 1159 1747 
Q 1159 1113 1420 752 
Q 1681 391 2138 391 
Q 2594 391 2855 752 
Q 3116 1113 3116 1747 
z
" transform="scale(0.015625)"/>
      <path id="DejaVuSans-65" d="M 3597 1894 
L 3597 1613 
L 953 1613 
Q 991 1019 1311 708 
Q 1631 397 2203 397 
Q 2534 397 2845 478 
Q 3156 559 3463 722 
L 3463 178 
Q 3153 47 2828 -22 
Q 2503 -91 2169 -91 
Q 1331 -91 842 396 
Q 353 884 353 1716 
Q 353 2575 817 3079 
Q 1281 3584 2069 3584 
Q 2775 3584 3186 3129 
Q 3597 2675 3597 1894 
z
M 3022 2063 
Q 3016 2534 2758 2815 
Q 2500 3097 2075 3097 
Q 1594 3097 1305 2825 
Q 1016 2553 972 2059 
L 3022 2063 
z
" transform="scale(0.015625)"/>
     </defs>
     <use xlink:href="#DejaVuSans-45"/>
     <use xlink:href="#DejaVuSans-78" x="63.183594"/>
     <use xlink:href="#DejaVuSans-70" x="122.363281"/>
     <use xlink:href="#DejaVuSans-65" x="185.839844"/>
     <use xlink:href="#DejaVuSans-72" x="247.363281"/>
     <use xlink:href="#DejaVuSans-69" x="288.476562"/>
     <use xlink:href="#DejaVuSans-6d" x="316.259766"/>
     <use xlink:href="#DejaVuSans-65" x="413.671875"/>
     <use xlink:href="#DejaVuSans-6e" x="475.195312"/>
     <use xlink:href="#DejaVuSans-74" x="538.574219"/>
     <use xlink:href="#DejaVuSans-61" x="577.783203"/>
     <use xlink:href="#DejaVuSans-6c" x="639.0625"/>
    </g>
   </g>
   <g id="line2d_22">
    <path d="M 192.48875 61.452813 
L 202.48875 61.452813 
L 212.48875 61.452813 
" style="fill: none; stroke-dasharray: 5.55,2.4; stroke-dashoffset: 0; stroke: #000000; stroke-width: 1.5"/>
   </g>
   <g id="text_17">
    <!-- Avgerage $R_g$ -->
    <g transform="translate(220.48875 64.952813) scale(0.1 -0.1)">
     <defs>
      <path id="DejaVuSans-41" d="M 2188 4044 
L 1331 1722 
L 3047 1722 
L 2188 4044 
z
M 1831 4666 
L 2547 4666 
L 4325 0 
L 3669 0 
L 3244 1197 
L 1141 1197 
L 716 0 
L 50 0 
L 1831 4666 
z
" transform="scale(0.015625)"/>
      <path id="DejaVuSans-76" d="M 191 3500 
L 800 3500 
L 1894 563 
L 2988 3500 
L 3597 3500 
L 2284 0 
L 1503 0 
L 191 3500 
z
" transform="scale(0.015625)"/>
      <path id="DejaVuSans-67" d="M 2906 1791 
Q 2906 2416 2648 2759 
Q 2391 3103 1925 3103 
Q 1463 3103 1205 2759 
Q 947 2416 947 1791 
Q 947 1169 1205 825 
Q 1463 481 1925 481 
Q 2391 481 2648 825 
Q 2906 1169 2906 1791 
z
M 3481 434 
Q 3481 -459 3084 -895 
Q 2688 -1331 1869 -1331 
Q 1566 -1331 1297 -1286 
Q 1028 -1241 775 -1147 
L 775 -588 
Q 1028 -725 1275 -790 
Q 1522 -856 1778 -856 
Q 2344 -856 2625 -561 
Q 2906 -266 2906 331 
L 2906 616 
Q 2728 306 2450 153 
Q 2172 0 1784 0 
Q 1141 0 747 490 
Q 353 981 353 1791 
Q 353 2603 747 3093 
Q 1141 3584 1784 3584 
Q 2172 3584 2450 3431 
Q 2728 3278 2906 2969 
L 2906 3500 
L 3481 3500 
L 3481 434 
z
" transform="scale(0.015625)"/>
     </defs>
     <use xlink:href="#DejaVuSans-41" transform="translate(0 0.09375)"/>
     <use xlink:href="#DejaVuSans-76" transform="translate(68.408203 0.09375)"/>
     <use xlink:href="#DejaVuSans-67" transform="translate(127.587891 0.09375)"/>
     <use xlink:href="#DejaVuSans-65" transform="translate(191.064453 0.09375)"/>
     <use xlink:href="#DejaVuSans-72" transform="translate(252.587891 0.09375)"/>
     <use xlink:href="#DejaVuSans-61" transform="translate(293.701172 0.09375)"/>
     <use xlink:href="#DejaVuSans-67" transform="translate(354.980469 0.09375)"/>
     <use xlink:href="#DejaVuSans-65" transform="translate(418.457031 0.09375)"/>
     <use xlink:href="#DejaVuSans-20" transform="translate(479.980469 0.09375)"/>
     <use xlink:href="#DejaVuSans-Oblique-52" transform="translate(511.767578 0.09375)"/>
     <use xlink:href="#DejaVuSans-Oblique-67" transform="translate(581.25 -16.3125) scale(0.7)"/>
    </g>
   </g>
  </g>
 </g>
 <defs>
  <clipPath id="p3d8b07a91b">
   <rect x="52.079375" y="7.2" width="279" height="221.76"/>
  </clipPath>
 </defs>
</svg>
